HIERARCHY
ROOT joint_Root
{
	OFFSET 0.0 0.0 0.0
	CHANNELS 6 Xposition Yposition Zposition Zrotation Xrotation Yrotation 
	JOINT Hips
	{
		OFFSET 4.5925 91.4895 -427.239
		CHANNELS 6 Xposition Yposition Zposition Zrotation Xrotation Yrotation 
		JOINT Spine
		{
			OFFSET 15.7357 0.0 0.0
			CHANNELS 6 Xposition Yposition Zposition Zrotation Xrotation Yrotation 
			JOINT Chest
			{
				OFFSET 8.98455 -0.406207 0.0
				CHANNELS 6 Xposition Yposition Zposition Zrotation Xrotation Yrotation 
				JOINT Neck
				{
					OFFSET 16.3773 0.0 0.0
					CHANNELS 6 Xposition Yposition Zposition Zrotation Xrotation Yrotation 
					JOINT Head
					{
						OFFSET 6.45672 0.0 0.0
						CHANNELS 6 Xposition Yposition Zposition Zrotation Xrotation Yrotation 
						End Site
						{
							OFFSET 0.0 0.0 0.0
						}
					}
				}
				JOINT Shoulder_L
				{
					OFFSET 12.9942 -0.242716 4.98039
					CHANNELS 6 Xposition Yposition Zposition Zrotation Xrotation Yrotation 
					JOINT UpperArm_L
					{
						OFFSET 5.34809 0.0 0.0
						CHANNELS 6 Xposition Yposition Zposition Zrotation Xrotation Yrotation 
						JOINT LowerArm_L
						{
							OFFSET 24.3286 1.87007e-05 0.0
							CHANNELS 6 Xposition Yposition Zposition Zrotation Xrotation Yrotation 
							JOINT Hand_L
							{
								OFFSET 22.2916 0.0 0.0
								CHANNELS 6 Xposition Yposition Zposition Zrotation Xrotation Yrotation 
								End Site
								{
									OFFSET 0.0 0.0 0.0
								}
							}
						}
					}
				}
				JOINT Shoulder_R
				{
					OFFSET 12.9945 -0.242716 -4.98039
					CHANNELS 6 Xposition Yposition Zposition Zrotation Xrotation Yrotation 
					JOINT UpperArm_R
					{
						OFFSET -5.34813 0.0 0.0
						CHANNELS 6 Xposition Yposition Zposition Zrotation Xrotation Yrotation 
						JOINT LowerArm_R
						{
							OFFSET -24.3289 0.000322201 0.0
							CHANNELS 6 Xposition Yposition Zposition Zrotation Xrotation Yrotation 
							JOINT Hand_R
							{
								OFFSET -22.2915 -0.000108084 0.0
								CHANNELS 6 Xposition Yposition Zposition Zrotation Xrotation Yrotation 
								End Site
								{
									OFFSET 0.0 0.0 0.0
								}
							}
						}
					}
				}
			}
		}
		JOINT UpperLeg_L
		{
			OFFSET -2.19248 -6.46944 0.0
			CHANNELS 6 Xposition Yposition Zposition Zrotation Xrotation Yrotation 
			JOINT LowerLeg_L
			{
				OFFSET 39.0811 0.0 -1.23785e-05
				CHANNELS 6 Xposition Yposition Zposition Zrotation Xrotation Yrotation 
				JOINT Foot_L
				{
					OFFSET 40.9854 0.0 -1.26872e-05
					CHANNELS 6 Xposition Yposition Zposition Zrotation Xrotation Yrotation 
					JOINT Toes_L
					{
						OFFSET 11.7543 0.0 0.0
						CHANNELS 6 Xposition Yposition Zposition Zrotation Xrotation Yrotation 
						End Site
						{
							OFFSET 0.0 0.0 0.0
						}
					}
				}
			}
		}
		JOINT UpperLeg_R
		{
			OFFSET -2.19251 6.46944 0.0
			CHANNELS 6 Xposition Yposition Zposition Zrotation Xrotation Yrotation 
			JOINT LowerLeg_R
			{
				OFFSET -39.0811 -0.00228153 -0.0401928
				CHANNELS 6 Xposition Yposition Zposition Zrotation Xrotation Yrotation 
				JOINT Foot_R
				{
					OFFSET -40.9854 0.0 0.0
					CHANNELS 6 Xposition Yposition Zposition Zrotation Xrotation Yrotation 
					JOINT Toes_R
					{
						OFFSET -11.7543 0.0 0.0
						CHANNELS 6 Xposition Yposition Zposition Zrotation Xrotation Yrotation 
						End Site
						{
							OFFSET 0.0 0.0 0.0
						}
					}
				}
			}
		}
	}
}
MOTION
Frames:	7
Frame Time:	0.0333333
0.000000 0.000000 0.000000 0.000000 0.000000 -0.000000 -0.483191 91.900000 0.374583 89.564300 -0.181542 2.255070 15.735700 0.000005 -0.000001 78.622000 87.258500 -78.702400 8.984550 -0.406207 -0.000000 -2.391650 -1.074240 -0.183074 16.377300 -0.000001 -0.000001 4.388610 -4.772810 2.438980 6.456720 -0.000001 -0.000000 -2.041820 -4.632070 -1.299960 12.994200 -0.242716 4.980390 -84.469300 -9.980570 -60.808200 5.348090 -0.000007 -0.000001 -33.244400 -60.238600 -79.871900 24.328600 0.000019 0.000005 10.952700 13.540200 -39.576200 22.291600 -0.000001 0.000005 26.759400 5.319000 -0.467094 12.994500 -0.242716 -4.980390 94.891500 -11.031600 -65.903600 -5.348130 -0.000001 -0.000004 -41.609800 -61.822000 -83.595200 -24.328900 0.000322 -0.000009 -2.098320 -2.646120 -38.421000 -22.291500 -0.000108 -0.000004 21.228600 5.580640 -10.246600 -2.192480 -6.469440 -0.000000 -176.375000 -11.103300 -4.802070 39.081100 -0.000007 -0.000012 -0.129891 0.288229 24.258900 40.985400 -0.000006 -0.000013 0.194936 6.772570 -67.252500 11.754300 -0.000000 0.000003 -0.000203 -0.001876 -16.648300 -2.192510 6.469440 -0.000001 176.988000 24.093800 176.142000 -39.081100 -0.002282 -0.040193 -0.011010 0.031984 24.125000 -40.985400 0.000008 0.000006 4.843120 11.386200 -68.347400 -11.754300 -0.000006 -0.000006 -0.001832 -0.026596 -17.654500
0.000000 0.000000 0.000000 0.000000 0.000000 -0.000000 -0.463843 91.894400 0.304525 89.540100 -0.320347 2.303630 15.735700 0.000005 -0.000001 79.508700 87.248900 -79.578400 8.984550 -0.406207 -0.000000 -2.356630 -0.995394 -0.159876 16.377300 -0.000001 -0.000001 4.352870 -4.716550 2.434410 6.456720 -0.000001 -0.000000 -1.906630 -4.539370 -1.257330 12.994200 -0.242716 4.980390 -84.591800 -9.746200 -60.784000 5.348090 -0.000007 -0.000001 -33.966300 -59.681000 -79.336700 24.328600 0.000019 0.000005 10.927700 13.017200 -40.602300 22.291600 -0.000001 0.000005 26.505300 5.307920 -0.150635 12.994500 -0.242716 -4.980390 94.757800 -10.769000 -65.989800 -5.348130 -0.000001 -0.000004 -40.077900 -61.302100 -81.445300 -24.328900 0.000322 -0.000009 -2.376060 -2.897040 -39.371400 -22.291500 -0.000108 -0.000004 21.282900 5.578170 -10.115200 -2.192480 -6.469440 -0.000000 -176.371000 -11.090800 -4.830580 39.081100 -0.000007 -0.000012 -0.131643 0.290898 24.348700 40.985400 -0.000006 -0.000013 0.186897 6.639040 -67.263100 11.754300 -0.000000 0.000003 -0.000201 -0.001858 -16.647600 -2.192510 6.469440 -0.000001 177.010000 23.899700 176.092000 -39.081100 -0.002282 -0.040193 -0.015111 0.041032 24.182200 -40.985400 0.000008 0.000006 4.760920 11.337100 -68.293500 -11.754300 -0.000006 -0.000006 -0.001893 -0.027375 -17.686200
0.000000 0.000000 0.000000 0.000000 0.000000 -0.000000 -0.434876 91.889700 0.236862 89.532800 -0.461497 2.393230 15.735700 0.000005 -0.000001 80.514900 87.237400 -80.580700 8.984550 -0.406207 -0.000000 -2.316950 -0.904460 -0.149870 16.377300 -0.000001 -0.000001 4.334920 -4.652840 2.438300 6.456720 -0.000001 -0.000000 -1.694720 -4.485810 -1.186950 12.994200 -0.242716 4.980390 -84.787800 -9.420170 -60.867100 5.348090 -0.000007 -0.000001 -34.151200 -58.423300 -77.445800 24.328600 0.000019 0.000005 10.629000 11.769400 -42.617100 22.291600 -0.000001 0.000005 26.178100 5.289960 0.352464 12.994500 -0.242716 -4.980390 94.477100 -10.262300 -66.274500 -5.348130 -0.000001 -0.000004 -37.150100 -60.192600 -77.175000 -24.328900 0.000322 -0.000009 -3.104590 -3.482870 -41.745000 -22.291500 -0.000108 -0.000004 21.830400 5.572290 -9.807060 -2.192480 -6.469440 -0.000000 -176.390000 -11.078800 -4.812520 39.081100 -0.000007 -0.000012 -0.129962 0.286181 24.424000 40.985400 -0.000006 -0.000013 0.183522 6.482370 -67.265300 11.754300 -0.000000 0.000003 -0.000209 -0.001923 -16.650000 -2.192510 6.469440 -0.000001 176.995000 23.644400 176.079000 -39.081100 -0.002282 -0.040193 -0.018108 0.047568 24.243300 -40.985400 0.000008 0.000006 4.645670 11.272300 -68.229400 -11.754300 -0.000006 -0.000006 -0.001889 -0.027320 -17.684000
0.000000 0.000000 0.000000 0.000000 0.000000 -0.000000 -0.402807 91.876700 0.164792 89.555100 -0.555166 2.544150 15.735700 0.000005 -0.000001 81.517500 87.193500 -81.595400 8.984550 -0.406207 -0.000000 -2.215030 -0.820953 -0.171581 16.377300 -0.000001 -0.000001 4.249950 -4.609960 2.400910 6.456720 -0.000001 -0.000000 -1.534550 -4.507870 -1.046770 12.994200 -0.242716 4.980390 -85.076800 -8.971280 -61.084500 5.348090 -0.000007 -0.000001 -33.826400 -56.331400 -73.961000 24.328600 0.000019 0.000005 10.348300 10.132600 -46.068400 22.291600 -0.000001 0.000005 25.956500 5.277180 0.702908 12.994500 -0.242716 -4.980390 94.040700 -9.402950 -66.617400 -5.348130 -0.000001 -0.000004 -33.987000 -58.256400 -71.720400 -24.328900 0.000322 -0.000009 -4.144670 -4.043260 -45.770400 -22.291500 -0.000108 -0.000004 22.655600 5.563430 -9.360340 -2.192480 -6.469440 -0.000000 -176.424000 -11.041900 -4.748000 39.081100 -0.000007 -0.000012 -0.130048 0.284974 24.529700 40.985400 -0.000006 -0.000013 0.192160 6.367920 -67.285500 11.754300 -0.000000 0.000003 -0.000192 -0.001788 -16.645100 -2.192510 6.469440 -0.000001 176.897000 23.516000 176.119000 -39.081100 -0.002282 -0.040193 -0.022398 0.056768 24.366100 -40.985400 0.000008 0.000006 4.512040 11.295800 -68.202300 -11.754300 -0.000006 -0.000006 -0.001966 -0.028292 -17.723500
0.000000 0.000000 0.000000 0.000000 0.000000 -0.000000 -0.389869 91.857800 0.076994 89.550300 -0.543815 2.743950 15.735700 0.000005 -0.000001 81.454900 87.095700 -81.531900 8.984550 -0.406207 -0.000000 -2.022480 -0.856304 -0.169257 16.377300 -0.000001 -0.000001 4.019450 -4.568650 2.351800 6.456720 -0.000001 -0.000000 -1.460060 -4.495180 -0.946328 12.994200 -0.242716 4.980390 -85.530500 -8.276270 -61.497000 5.348090 -0.000007 -0.000001 -32.557200 -53.437400 -68.409900 24.328600 0.000019 0.000005 10.187100 8.336020 -51.107400 22.291600 -0.000001 0.000005 26.059100 5.263470 1.073960 12.994500 -0.242716 -4.980390 93.465000 -8.274970 -67.183700 -5.348130 -0.000001 -0.000004 -31.407900 -55.516300 -65.491500 -24.328900 0.000322 -0.000009 -5.003890 -3.988580 -51.525600 -22.291500 -0.000108 -0.000004 23.172500 5.545220 -8.484570 -2.192480 -6.469440 -0.000000 -176.404000 -10.997700 -4.704640 39.081100 -0.000007 -0.000012 -0.130913 0.284465 24.712400 40.985400 -0.000006 -0.000013 0.208347 6.334560 -67.313300 11.754300 -0.000000 0.000003 -0.000190 -0.001776 -16.644600 -2.192510 6.469440 -0.000001 176.811000 23.481800 176.197000 -39.081100 -0.002282 -0.040193 -0.029939 0.072955 24.503000 -40.985400 0.000008 0.000006 4.310000 11.296100 -68.153300 -11.754300 -0.000006 -0.000006 -0.001831 -0.026576 -17.653800
0.000000 0.000000 0.000000 0.000000 0.000000 -0.000000 -0.376601 91.822500 -0.025524 89.550800 -0.472954 3.052920 15.735700 0.000005 -0.000001 80.325900 86.945200 -80.361400 8.984550 -0.406207 -0.000000 -1.743680 -1.023500 -0.086581 16.377300 -0.000001 -0.000001 3.676420 -4.453580 2.231560 6.456720 -0.000001 -0.000000 -1.393420 -4.520410 -0.982184 12.994200 -0.242716 4.980390 -86.164900 -7.293850 -62.165800 5.348090 -0.000007 -0.000001 -30.756600 -49.536800 -61.028100 24.328600 0.000019 0.000005 10.111900 6.547600 -57.408800 22.291600 -0.000001 0.000005 26.352200 5.244820 1.567720 12.994500 -0.242716 -4.980390 92.765900 -6.937890 -68.202500 -5.348130 -0.000001 -0.000004 -28.807800 -51.975900 -57.966800 -24.328900 0.000322 -0.000009 -6.380450 -3.916760 -58.569600 -22.291500 -0.000108 -0.000004 23.230400 5.530050 -7.797130 -2.192480 -6.469440 -0.000000 -176.358000 -10.992100 -4.613860 39.081100 -0.000007 -0.000012 -0.132850 0.284863 25.002800 40.985400 -0.000006 -0.000013 0.257318 6.418910 -67.387600 11.754300 -0.000000 0.000003 -0.000200 -0.001849 -16.647300 -2.192510 6.469440 -0.000001 176.655000 23.548700 176.362000 -39.081100 -0.002282 -0.040193 -0.040343 0.094746 24.738700 -40.985400 0.000008 0.000006 4.110650 11.341900 -68.162500 -11.754300 -0.000006 -0.000006 -0.001869 -0.027065 -17.673600
0.000000 0.000000 0.000000 0.000000 0.000000 -0.000000 -0.350742 91.788000 -0.152057 89.577100 -0.423334 3.342370 15.735700 0.000005 -0.000001 78.858600 86.745300 -78.849300 8.984550 -0.406207 -0.000000 -1.379320 -1.258270 0.003332 16.377300 -0.000001 -0.000001 3.108920 -4.345630 2.126220 6.456720 -0.000001 -0.000000 -1.415020 -4.435410 -1.082390 12.994200 -0.242716 4.980390 -86.915100 -6.084870 -63.051300 5.348090 -0.000007 -0.000001 -29.247300 -44.646600 -52.566500 24.328600 0.000019 0.000005 10.410600 5.093510 -64.208900 22.291600 -0.000001 0.000005 26.678600 5.221780 2.167300 12.994500 -0.242716 -4.980390 91.967100 -5.324930 -69.694000 -5.348130 -0.000001 -0.000004 -26.113000 -47.521500 -49.173700 -24.328900 0.000322 -0.000009 -8.038850 -3.614290 -65.935000 -22.291500 -0.000108 -0.000004 23.128000 5.520280 -7.374230 -2.192480 -6.469440 -0.000000 -176.369000 -10.977100 -4.558380 39.081100 -0.000007 -0.000012 -0.131887 0.279211 25.284100 40.985400 -0.000006 -0.000013 0.308220 6.434450 -67.439600 11.754300 -0.000000 0.000003 -0.000198 -0.001837 -16.646900 -2.192510 6.469440 -0.000001 176.461000 23.562100 176.479000 -39.081100 -0.002282 -0.040193 -0.054363 0.123830 24.974000 -40.985400 0.000008 0.000006 3.767300 11.429700 -68.113700 -11.754300 -0.000006 -0.000006 -0.001661 -0.024395 -17.565100
